# xmcd
#
# Track frame offsets: 
#        183
#        18813
#        32443
#        41530
#        53820
#        69375
#        92343
#        109515
#        130128
#        145865
#        159348
#        171995
#        182423
#        214553
#
# Disc length: 3064 seconds
#
# Revision: 71
# Processed by: cddbd v1.5.2PL0 Copyright (c) Steve Scherf et al.
# Submitted via: ExactAudioCopy v0.99pb5
#
DISCID=a60bf60e
DTITLE=Beatles - 1967-1970 (Blue Album) - CD 1
DYEAR=1993
DGENRE=Pop
TTITLE0=Strawberry fields forever
TTITLE1=Penny Lane
TTITLE2=Sgt. Pepper's Lonely Hearts Club Band
TTITLE3=With a little help from my friends
TTITLE4=Lucy in the sky with diamonds
TTITLE5=A day in the life
TTITLE6=All you need is love
TTITLE7=I am the walrus
TTITLE8=Hello, goodbye
TTITLE9=The fool on the hill
TTITLE10=Magical mystery tour
TTITLE11=Lady Madonna
TTITLE12=Hey Jude
TTITLE13=Revolution
EXTD=YEAR: 1993
EXTT0=
EXTT1=
EXTT2=
EXTT3=
EXTT4=
EXTT5=
EXTT6=
EXTT7=
EXTT8=
EXTT9=
EXTT10=
EXTT11=
EXTT12=
EXTT13=
PLAYORDER=
